<svg xmlns="http://www.w3.org/2000/svg" viewBox="0 0 140 160">
  <path d="M30 5v5H20v10H10v10H0v90h10v20h10v10h10v-10h10v10h10v10h60v-10h10v-10h10v-19.9l5.3-.3 5.2-.3.3-40.5.3-40.5-.6-9.3-.7-9.2H130V10h-10V0h-20v10H90V0H30v5m80 10v5h10V10h-10v5M.5 75v45.5l.2-22.8L1 75 .7 52.2.5 29.6V75M50 35v5H40v50H20V80h10V70H20v10H10v30h20v-10h10v10h10v10h80V90h-10V80h-20V70h30V40h-10v20h-10V50h-10V40H90v10H80v10H60V50h10V30H50v5m0 40v5h20v10h10V80h10V70H50v5m30 30v5h20v-10H80v5m-10 30v5h20v-10H70v5" fill="currentColor" fill-rule="evenodd"/>
</svg>
